<svg xmlns="http://www.w3.org/2000/svg" width="230.8" height="135.8" viewBox="0 0 230.8 135.8">
  <g id="_14-days" data-name="14-days" transform="translate(-9.6 -12.1)">
    <g id="Group_1" data-name="Group 1">
      <rect id="Rectangle_1" data-name="Rectangle 1" width="230" height="135" transform="translate(10 12.5)" fill="#fff"/>
      <path id="Path_1" data-name="Path 1" d="M240.4,147.9H9.6V12.1H240.4V147.9Zm-230-.8H239.7V12.9H10.4Z" fill="#7c7c7c"/>
    </g>
    <g id="Group_5" data-name="Group 5">
      <g id="Group_2" data-name="Group 2">
        <path id="Path_2" data-name="Path 2" d="M37.9,132.6a9.913,9.913,0,0,1-3.4,2.1,15.482,15.482,0,0,1-5.7.9,10.265,10.265,0,0,1-7.9-3.3,12.092,12.092,0,0,1-3-8.5V123a12.868,12.868,0,0,1,3-8.8,9.875,9.875,0,0,1,7.9-3.4,14.561,14.561,0,0,1,5.2.9,11.7,11.7,0,0,1,3.9,2.4v4.8H34.3l-.7-3.2a3.932,3.932,0,0,0-1.7-.9,9,9,0,0,0-2.5-.3,5.935,5.935,0,0,0-4.9,2.3,9.6,9.6,0,0,0-1.7,6.1v.9a9.3,9.3,0,0,0,1.7,5.8,5.734,5.734,0,0,0,4.9,2.2,12.144,12.144,0,0,0,2.3-.2,4.539,4.539,0,0,0,1.4-.6v-4l-3.4-.3v-3.4H38v9.3Z" fill="#303030"/>
        <path id="Path_3" data-name="Path 3" d="M50.6,111.3v2.9l-2.6.5v12.5a4.546,4.546,0,0,0,1.3,3.6,4.958,4.958,0,0,0,3.5,1.2,4.794,4.794,0,0,0,3.5-1.2,4.546,4.546,0,0,0,1.3-3.6V114.7l-2.6-.5v-2.9H65v2.9l-2.6.5v12.5a7.416,7.416,0,0,1-2.7,6.2,10.487,10.487,0,0,1-7,2.2,10.038,10.038,0,0,1-6.9-2.2,7.478,7.478,0,0,1-2.6-6.2V114.7l-2.6-.5v-2.9h10Z" fill="#303030"/>
        <path id="Path_4" data-name="Path 4" d="M65.2,132.4l1.7-.2,7.3-20.9h4.9l7.3,20.9,1.7.2v2.9H80v-2.9l1.7-.3-1.1-3.3H72.8l-1.1,3.3,1.7.3v2.9H65.2Zm8.7-7.2h5.5l-2.7-8.5h-.1Z" fill="#303030"/>
        <path id="Path_5" data-name="Path 5" d="M101.2,111.3c2.7,0,4.9.6,6.4,1.9a6.529,6.529,0,0,1,2.3,5.2,4.624,4.624,0,0,1-1,3.1,6.756,6.756,0,0,1-2.9,2.2,5.41,5.41,0,0,1,3.1,2.1,6.871,6.871,0,0,1,.9,3.6v1.2a2.133,2.133,0,0,0,.3,1.2,1.231,1.231,0,0,0,1,.5l.6.1v2.9h-2.5c-1.6,0-2.7-.4-3.3-1.3a5.4,5.4,0,0,1-1-3.3v-1.4a3.667,3.667,0,0,0-.9-2.7,3.253,3.253,0,0,0-2.6-1H97.7v6.3l2.6.5v2.9H90.4v-2.9l2.6-.5V114.7l-2.6-.5v-2.9h10.8Zm-3.4,10.6h3.3a4.479,4.479,0,0,0,3-.9,3.04,3.04,0,0,0,1-2.5,3.392,3.392,0,0,0-1-2.6,3.8,3.8,0,0,0-2.9-1H97.8Z" fill="#303030"/>
        <path id="Path_6" data-name="Path 6" d="M114,132.4l1.7-.2,7.3-20.9h4.9l7.3,20.9,1.7.2v2.9h-8.2v-2.9l1.7-.3-1.1-3.3h-7.8l-1.1,3.3,1.7.3v2.9H114Zm8.8-7.2h5.5l-2.7-8.5h-.1Z" fill="#303030"/>
        <path id="Path_7" data-name="Path 7" d="M163.8,111.3v2.9l-2.6.5v20.6h-4.8l-9.7-16.2h-.1v12.8l2.6.5v2.9h-9.9v-2.9l2.6-.5V114.7l-2.6-.5v-2.9h7.4l9.7,16.2h.1V114.8l-2.6-.5v-2.9h9.9Z" fill="#303030"/>
        <path id="Path_8" data-name="Path 8" d="M187.1,111.3v6.4h-3.7l-.2-2.7h-4.4v16.9l2.6.5v2.9h-10v-2.9l2.6-.5V115h-4.4l-.2,2.7h-3.7v-6.4h21.4Z" fill="#303030"/>
        <path id="Path_9" data-name="Path 9" d="M204.8,124.7h-8.1v6.9h7.7l.2-2.9h3.7v6.6h-19v-2.9l2.6-.5V114.7l-2.6-.5v-2.9h19v6.6h-3.7l-.2-2.9h-7.7v6h8.1Z" fill="#303030"/>
        <path id="Path_10" data-name="Path 10" d="M227.1,124.7H219v6.9h7.7l.2-2.9h3.7v6.6h-19v-2.9l2.6-.5V114.7l-2.6-.5v-2.9h19v6.6h-3.7l-.2-2.9H219v6h8.1Z" fill="#303030"/>
      </g>
      <g id="Group_3" data-name="Group 3">
        <path id="Path_11" data-name="Path 11" d="M39.7,78.3h0L32.4,96.1h-2L23.2,78.3h-.1l.3,9v6.4l2.5.4V96h-8V94.1l2.5-.4V76.3l-2.5-.4V74h6.3l7.1,18h.1l7.1-18h6.3v1.9l-2.5.4V93.8l2.5.4v1.9h-8V94.2l2.5-.4V87.4Z" fill="#303030"/>
        <path id="Path_12" data-name="Path 12" d="M67.5,85.2a11.494,11.494,0,0,1-2.8,8,9.336,9.336,0,0,1-7.2,3.2,8.784,8.784,0,0,1-7-3.2,11.918,11.918,0,0,1-2.7-8v-.3a11.918,11.918,0,0,1,2.7-8,8.784,8.784,0,0,1,7-3.2,9.336,9.336,0,0,1,7.2,3.2,11.494,11.494,0,0,1,2.8,8Zm-3-.4a9.661,9.661,0,0,0-1.9-6.3,6,6,0,0,0-5.1-2.4,5.6,5.6,0,0,0-4.9,2.5,10.235,10.235,0,0,0-1.8,6.3v.4a10.235,10.235,0,0,0,1.8,6.3A5.757,5.757,0,0,0,57.5,94a6.316,6.316,0,0,0,5.2-2.4,10.346,10.346,0,0,0,1.8-6.4Z" fill="#303030"/>
        <path id="Path_13" data-name="Path 13" d="M92.1,73.9v1.9l-2.5.4V96h-3L75.9,79h-.1V93.8l2.5.4v1.9h-8V94.2l2.5-.4V76.3l-2.5-.4V74h5.5L86.5,91h.1V76.3l-2.5-.4V74h8Z" fill="#303030"/>
        <path id="Path_14" data-name="Path 14" d="M94.8,96.1V94.2l2.5-.4V76.3l-2.5-.4V74h17v5.3h-2.6l-.2-3h-8.7v7.2h8.5v2.4h-8.5v7.9h8.9l.2-3H112v5.3H94.8Z" fill="#303030"/>
        <path id="Path_15" data-name="Path 15" d="M122.7,75.8l-2.4.3,4.6,9.1,4.6-9.1-2.4-.3V73.9h7.6v1.9l-1.9.3-6.6,12.2v5.5l2.5.4v1.9h-8V94.2l2.5-.4V88.1l-6.5-11.9-1.9-.3V74h7.6v1.8Z" fill="#303030"/>
        <path id="Path_16" data-name="Path 16" d="M155.6,73.9a8.665,8.665,0,0,1,5.4,1.5,5.354,5.354,0,0,1,2,4.5,3.917,3.917,0,0,1-.9,2.6,5.583,5.583,0,0,1-2.5,1.7,5.208,5.208,0,0,1,3.2,2,5.584,5.584,0,0,1,1.2,3.6,5.9,5.9,0,0,1-2,4.7,8.094,8.094,0,0,1-5.4,1.6H145.9V94.2l2.5-.4V76.3l-2.5-.4V74h9.7Zm-4.2,9.4h5a3.8,3.8,0,0,0,2.6-1,3.174,3.174,0,0,0,1-2.5,3.387,3.387,0,0,0-1.1-2.7,5,5,0,0,0-3.3-.9h-4.2Zm0,2.4v8.1h5.2a4.555,4.555,0,0,0,3.2-1,3.5,3.5,0,0,0,1.1-2.9,4.454,4.454,0,0,0-1-3.1,3.69,3.69,0,0,0-2.9-1.1Z" fill="#303030"/>
        <path id="Path_17" data-name="Path 17" d="M166.8,94.2l1.6-.2,7.8-20h2.6l7.6,20,1.6.2v1.9h-6.4V94.2l1.7-.3-1.5-4.1H173l-1.5,4.1,1.7.3v1.9h-6.4Zm7.1-6.9h7l-3.4-9.5h-.1Z" fill="#303030"/>
        <path id="Path_18" data-name="Path 18" d="M206.5,80.7h-2.1l-.6-3.1a5.675,5.675,0,0,0-1.8-1.2,6.551,6.551,0,0,0-2.5-.5,6.074,6.074,0,0,0-5.3,2.5,10.792,10.792,0,0,0-1.9,6.4v.4a10.757,10.757,0,0,0,1.8,6.4,5.835,5.835,0,0,0,5.1,2.5,7.635,7.635,0,0,0,2.7-.5,4.445,4.445,0,0,0,1.9-1.2l.6-3.1h2.1v3.9a7.633,7.633,0,0,1-2.9,2.2,10.641,10.641,0,0,1-4.5,1,8.985,8.985,0,0,1-7.1-3.2,11.981,11.981,0,0,1-2.8-8v-.3a12.188,12.188,0,0,1,2.7-8.1,8.985,8.985,0,0,1,7.1-3.2,9.329,9.329,0,0,1,4.5,1,10,10,0,0,1,2.9,2.2v3.9Z" fill="#303030"/>
        <path id="Path_19" data-name="Path 19" d="M210.1,94.2l2.5-.4V76.3l-2.5-.4V74h8v1.9l-2.5.4v7.5h2.3L224,76l-1.7-.2V73.9h7v1.9l-2.1.4-6.8,8.4,7.4,9.2,2.1.4v1.9h-7.3V94.2l1.7-.2L218,86.1h-2.6v7.7l2.5.4v1.9h-8V94.2Z" fill="#303030"/>
      </g>
      <rect id="Rectangle_2" data-name="Rectangle 2" width="215.5" height="38.3" transform="translate(17.3 24.4)" fill="#1e5186"/>
      <path id="Path_20" data-name="Path 20" d="M57.4,39.5,59.2,43l3.9.6-2.8,2.8.7,3.9-3.6-1.8-3.5,1.8.7-3.9-2.9-2.8,4-.6Z" fill="#fff"/>
      <path id="Path_21" data-name="Path 21" d="M33.6,39.5,35.3,43l4,.6-2.9,2.8.7,3.9-3.5-1.8L30,50.3l.7-3.9-2.8-2.8,3.9-.6Z" fill="#fff"/>
      <path id="Path_22" data-name="Path 22" d="M214.4,39.5l1.8,3.5,3.9.6-2.8,2.8.7,3.9-3.6-1.8-3.5,1.8.7-3.9-2.9-2.8,4-.6Z" fill="#fff"/>
      <path id="Path_23" data-name="Path 23" d="M190.6,39.5l1.7,3.5,4,.6-2.9,2.8.7,3.9-3.5-1.8L187,50.3l.7-3.9-2.8-2.8,3.9-.6Z" fill="#fff"/>
      <text id="_14_days" data-name="14 days" transform="translate(83.6 52.1)" fill="#fff" font-size="24" font-family="SegoeUISymbol, Segoe UI Symbol"><tspan x="0" y="0">14 days</tspan></text>
    </g>
  </g>
</svg>
