<svg width="135" xmlns="http://www.w3.org/2000/svg" viewBox="0 0 250 160" style="height:auto!important;enable-background:new 0 0 250 160"><style>.stT60010{fill:#fff!important}</style><path class="stT60010" d="M10 12.5h230v135H10z"/><path d="M240.4 147.9H9.6V12.1h230.8v135.8zm-230-.8h229.3V12.9H10.4v134.2z" style="fill:#7c7c7c!important"/><path d="M53.8 117.7h-4.1L49 114c-.5-.3-1.2-.6-2.1-.8-.9-.2-1.9-.3-2.9-.3-1.5 0-2.7.3-3.5.9-.8.6-1.2 1.4-1.2 2.4 0 .9.4 1.7 1.3 2.3.9.6 2.3 1.2 4.4 1.9 3 .8 5.3 1.9 6.9 3.3 1.6 1.4 2.3 3.2 2.3 5.4 0 2.3-.9 4.2-2.8 5.5-1.9 1.4-4.3 2-7.3 2-2.2 0-4.1-.3-5.9-1-1.7-.7-3.2-1.6-4.4-2.9V127H38l.6 3.9c.6.5 1.3.8 2.2 1.1.9.3 2 .4 3.2.4 1.5 0 2.6-.3 3.4-.9.8-.6 1.2-1.4 1.2-2.5s-.4-1.9-1.1-2.5c-.7-.6-2-1.2-3.9-1.8-3.2-.9-5.7-2.1-7.4-3.3-1.7-1.3-2.5-3.1-2.5-5.3 0-2.2.9-4 2.8-5.4 1.9-1.4 4.2-2.1 7.1-2.2 2.1 0 4 .3 5.7 1 1.7.6 3.2 1.5 4.4 2.6v5.6zm14.3-8.7v3.3l-2.9.6v14.3c0 1.8.5 3.2 1.5 4 1 .9 2.3 1.3 4 1.3 1.7 0 3.1-.4 4-1.3 1-.9 1.5-2.2 1.5-4.1v-14.3l-2.9-.6V109h11.3v3.3l-2.9.6v14.3c0 3.1-1 5.4-3 7.1-2 1.7-4.7 2.5-7.9 2.5-3.3 0-5.9-.8-7.9-2.5s-3-4-3-7.1v-14.3l-2.9-.6V109h11.1zm31.8 0c3.1 0 5.6.8 7.4 2.4 1.8 1.6 2.7 3.7 2.7 6.3 0 2.6-.9 4.7-2.7 6.3-1.8 1.6-4.3 2.4-7.4 2.4h-4.6v6.1l2.9.6v3.3H86.9V133l2.9-.6v-19.6l-2.9-.6V109h13zm-4.6 13.2h4.6c1.5 0 2.7-.4 3.5-1.2.8-.8 1.2-1.9 1.2-3.2 0-1.3-.4-2.4-1.2-3.3-.8-.9-1.9-1.3-3.5-1.3h-4.6v9zm30.3-13.2c3.1 0 5.6.8 7.4 2.4 1.8 1.6 2.7 3.7 2.7 6.3 0 2.6-.9 4.7-2.7 6.3-1.8 1.6-4.3 2.4-7.4 2.4H121v6.1l2.9.6v3.3h-11.3V133l2.9-.6v-19.6l-2.9-.6V109h13zm-4.6 13.2h4.6c1.5 0 2.7-.4 3.5-1.2.8-.8 1.2-1.9 1.2-3.2 0-1.3-.4-2.4-1.2-3.3-.8-.9-1.9-1.3-3.5-1.3H121v9zm42.2.7c0 4-1.1 7.3-3.4 9.9s-5.3 3.9-9 3.9-6.7-1.3-8.9-3.9c-2.3-2.6-3.4-5.9-3.4-9.9v-.4c0-4 1.1-7.3 3.4-9.9 2.3-2.6 5.2-3.9 8.9-3.9s6.7 1.3 9 3.9c2.3 2.6 3.4 5.9 3.4 9.9v.4zm-5.5-.5c0-2.8-.6-5.1-1.8-6.9-1.2-1.8-2.9-2.6-5.2-2.6s-4 .9-5.2 2.6-1.7 4.1-1.7 6.9v.5c0 2.9.6 5.2 1.7 7 1.1 1.8 2.9 2.6 5.2 2.6 2.3 0 4.1-.9 5.2-2.6 1.2-1.8 1.7-4.1 1.7-7v-.5zm20.7-13.4c3.1 0 5.5.7 7.3 2.1 1.8 1.4 2.6 3.4 2.6 5.9 0 1.4-.4 2.6-1.1 3.6s-1.8 1.8-3.2 2.5c1.6.5 2.8 1.3 3.5 2.4.7 1.1 1.1 2.5 1.1 4.1v1.4c0 .6.1 1.1.4 1.4.2.3.6.5 1.2.6l.7.1v3.3h-2.8c-1.8 0-3-.5-3.8-1.4s-1.1-2.2-1.1-3.7v-1.6c0-1.3-.4-2.4-1.1-3.1-.7-.8-1.7-1.2-3-1.2h-4.5v7.2l2.9.6v3.3h-11.3V133l2.9-.6v-19.6l-2.9-.6V109h12.2zm-3.9 12.1h3.8c1.5 0 2.7-.3 3.4-1 .8-.7 1.1-1.6 1.1-2.8 0-1.2-.4-2.2-1.1-2.9-.8-.7-1.9-1.1-3.4-1.1h-3.9v7.8zm42-12.1v7.3h-4.2l-.2-3.1h-5v19.3l2.9.6v3.3h-11.3V133l2.9-.6v-19.3h-5l-.2 3.1h-4.2V109h24.3zM52 82.3h-2.2l-.6-3.2c-.5-.5-1.1-.9-1.8-1.2-.7-.3-1.6-.5-2.6-.5-2.4 0-4.2.9-5.5 2.6-1.3 1.7-1.9 3.9-1.9 6.5v.4c0 2.6.6 4.8 1.9 6.5s3 2.6 5.2 2.6c1 0 2-.2 2.8-.5.8-.3 1.5-.7 2-1.2l.6-3.2H52v4c-.7.8-1.6 1.6-3 2.3-1.3.7-2.8 1-4.6 1-3 0-5.4-1.1-7.3-3.3-1.9-2.2-2.8-4.9-2.8-8.3v-.3c0-3.3.9-6.1 2.8-8.3 1.9-2.2 4.3-3.3 7.3-3.3 1.7 0 3.3.3 4.6 1 1.3.7 2.3 1.4 3 2.3v4.1zm11.7-7v2l-2.5.4v13c0 1.7.5 3 1.5 3.9 1 .9 2.3 1.3 3.9 1.3 1.7 0 3-.4 4.1-1.3 1-.9 1.5-2.2 1.5-3.9v-13l-2.5-.4v-2h8.1v2l-2.5.4v13c0 2.5-.8 4.4-2.4 5.7s-3.7 2-6.3 2c-2.5 0-4.5-.7-6.1-2S58 93.2 58 90.7v-13l-2.5-.4v-2h8.2zM96.9 82h-2.3l-.6-3.2c-.5-.4-1.1-.7-1.9-1-.8-.3-1.7-.4-2.7-.4-1.6 0-2.9.3-3.8 1-.9.7-1.3 1.6-1.3 2.7 0 1 .4 1.8 1.3 2.5s2.3 1.2 4.3 1.7c2.4.6 4.2 1.5 5.5 2.6 1.2 1.2 1.9 2.6 1.9 4.3 0 1.8-.7 3.3-2.2 4.4-1.5 1.1-3.5 1.7-5.9 1.7-1.8 0-3.3-.3-4.7-.9-1.4-.6-2.5-1.3-3.3-2.3v-4.2h2.3l.6 3.3c.6.5 1.3.9 2.1 1.2.8.3 1.8.5 3 .5 1.6 0 2.8-.3 3.7-1 .9-.7 1.4-1.5 1.4-2.7 0-1-.4-1.9-1.2-2.6-.8-.7-2.2-1.3-4.1-1.8-2.4-.6-4.3-1.4-5.6-2.5s-2-2.5-2-4.2c0-1.8.8-3.3 2.3-4.4 1.5-1.2 3.5-1.8 5.9-1.8 1.6 0 3 .3 4.4.8 1.3.5 2.4 1.2 3.1 2V82zm22-6.7v5h-2.6l-.2-2.6h-5v17.9l2.5.4v2h-8.2v-2l2.5-.4V77.7h-5.1l-.2 2.6H100v-5h18.9zm22.2 11.6c0 3.3-1 6.1-2.9 8.3-1.9 2.2-4.4 3.3-7.4 3.3-2.9 0-5.3-1.1-7.2-3.3-1.8-2.2-2.8-4.9-2.8-8.3v-.3c0-3.3.9-6.1 2.8-8.3 1.8-2.2 4.2-3.3 7.2-3.3s5.5 1.1 7.4 3.3c1.9 2.2 2.9 5 2.9 8.3v.3zm-3.1-.4c0-2.6-.6-4.8-1.9-6.5-1.3-1.7-3-2.5-5.3-2.5-2.1 0-3.8.8-5 2.5-1.2 1.7-1.8 3.8-1.8 6.5v.4c0 2.7.6 4.8 1.8 6.5 1.2 1.7 2.9 2.5 5 2.5 2.3 0 4-.8 5.3-2.5 1.3-1.7 1.9-3.8 1.9-6.5v-.4zm28.3-6.7L158.9 98h-2l-7.4-18.2h-.1l.3 9.2v6.6l2.5.4v2H144v-2l2.5-.4V77.7l-2.5-.4v-2h6.4l7.3 18.5h.1l7.2-18.5h6.5v2l-2.5.4v17.9l2.5.4v2h-8.2v-2l2.5-.4V89l.5-9.2zm8.1 18.3v-2l2.5-.4v-18l-2.5-.4v-2h17.5v5.5h-2.6l-.3-3h-9v7.4h8.7v2.4H180v8.1h9.1l.3-3h2.6v5.5h-17.6zm31.1-22.8c2.5 0 4.4.5 5.7 1.6 1.3 1.1 2 2.7 2 4.7 0 1.1-.3 2.1-.9 2.9-.6.9-1.5 1.5-2.6 2 1.2.4 2.1 1.1 2.7 2 .5.9.8 2 .8 3.4v1.8c0 .7.1 1.2.3 1.5.2.3.5.5.9.6l.8.1v2h-1.7c-1.2 0-2.1-.4-2.6-1.3-.5-.8-.8-1.8-.8-3V92c0-1.2-.4-2.2-1.1-3s-1.7-1.1-2.9-1.1h-4.9v7.8l2.5.4v2h-8.2v-2l2.5-.4v-18l-2.5-.4v-2h10zm-4.4 10.2h4c1.7 0 3-.3 3.8-1 .8-.7 1.2-1.6 1.2-2.9 0-1.2-.4-2.1-1.1-2.8-.8-.7-1.9-1-3.5-1h-4.4v7.7z" style="fill:#303030!important"/><path d="M227.3 22.1H22.7c-3 0-5.5 2.4-5.5 5.5V55c0 3 2.4 5.5 5.5 5.5h91.1l7.1 9.3 6.8-9.3h99.6c3 0 5.5-2.4 5.5-5.5V27.6c0-3-2.5-5.5-5.5-5.5z" style="fill:#1e5186!important"/><path class="stT60010" d="m54.6 36.2 1.8 3.6 3.9.6-2.8 2.8.6 3.9-3.5-1.9-3.5 1.9.7-3.9-2.9-2.8 4-.6zm22.1 0 1.8 3.6 3.9.6-2.9 2.8.7 3.9-3.5-1.9-3.5 1.9.6-3.9-2.8-2.8 3.9-.6zm-44.1 0 1.7 3.6 4 .6-2.9 2.8.7 3.9-3.5-1.9-3.6 1.9.7-3.9-2.8-2.8 3.9-.6zm162 0 1.8 3.6 3.9.6-2.8 2.8.6 3.9-3.5-1.9-3.5 1.9.7-3.9-2.9-2.8 4-.6zm22.1 0 1.8 3.6 3.9.6-2.9 2.8.7 3.9-3.5-1.9-3.5 1.9.6-3.9-2.8-2.8 3.9-.6zm-44.1 0 1.7 3.6 4 .6-2.9 2.8.7 3.9-3.5-1.9-3.6 1.9.7-3.9-2.8-2.8 3.9-.6zm-74 14.5V49l5.9-6.6c1.1-1.2 1.8-2.1 2.2-2.8.4-.7.6-1.4.6-2.1 0-.9-.3-1.7-.8-2.3-.5-.6-1.2-.9-2.1-.9-1.3 0-2.2.3-2.8 1-.6.6-.9 1.5-.9 2.7h-2.4v-.1c0-1.6.5-2.9 1.6-3.9 1.1-1.1 2.6-1.6 4.5-1.6 1.6 0 2.9.5 3.9 1.4 1 1 1.5 2.2 1.5 3.6 0 1-.3 2-.9 3-.6 1-1.4 2.1-2.5 3.2l-4.8 5.2v.1h6.4l.2-2.1h2.1v4H98.6zm24.7-6.1h2.5v1.9h-2.5v2.3l2 .3v1.6h-6.5v-1.6l2-.3v-2.3h-8.1v-1.4l8-12.6h2.6v12.1zm-7.9 0h5.5v-8.5h-.1l-.2.7-5.2 7.8zm13.9 7.7h-2.1l7.6-19.7h2.1l-7.6 19.7zm21.9-17.8c-2.2 2.6-3.7 4.9-4.4 6.9-.8 2-1.3 4.5-1.7 7.3l-.2 2h-2.5l.2-2c.3-2.9 1-5.4 2-7.7s2.4-4.4 4.1-6.6h-7.6l-.2 2.1H139v-4h12.3v2z"/></svg>