<svg width="44" height="44" viewBox="0 0 44 44" fill="none" xmlns="http://www.w3.org/2000/svg">
<circle cx="22" cy="22" r="22" fill="#F16523"/>
<path fill-rule="evenodd" clip-rule="evenodd" d="M10 14C10 13.4477 10.4477 13 11 13H19H24H28H32C33.1046 13 34 13.8954 34 15V27C34 28.1046 33.1046 29 32 29H26H20C18.8954 29 18 28.1046 18 27V24.975H15C14.4615 24.975 14.025 24.5385 14.025 24C14.025 23.4615 14.4615 23.025 15 23.025L18 23.025V18.6667C18 18.1144 18.4477 17.6667 19 17.6667C19.5523 17.6667 20 18.1144 20 18.6667V27H25V25C25 24.4477 25.4477 24 26 24C26.5523 24 27 24.4477 27 25V27H32V15H30V18C30 19.1046 29.1046 20 28 20H24C22.8954 20 22 19.1046 22 18V15H19.0012L19 15L11 15C10.4477 15 10 14.5523 10 14ZM24 15V18H28V15H24ZM12 18C11.4477 18 11 18.4477 11 19C11 19.5523 11.4477 20 12 20H15C15.5523 20 16 19.5523 16 19C16 18.4477 15.5523 18 15 18H12Z" fill="white"/>
</svg>
