<svg width="44" height="44" viewBox="0 0 44 44" fill="none" xmlns="http://www.w3.org/2000/svg">
<circle cx="22" cy="22" r="22" fill="#F16523"/>
<path d="M25.7105 21.71C26.6909 20.9387 27.4065 19.8809 27.7577 18.6839C28.109 17.487 28.0784 16.2103 27.6703 15.0315C27.2621 13.8527 26.4967 12.8304 25.4806 12.1069C24.4644 11.3833 23.2479 10.9945 22.0005 10.9945C20.753 10.9945 19.5366 11.3833 18.5204 12.1069C17.5042 12.8304 16.7388 13.8527 16.3307 15.0315C15.9226 16.2103 15.892 17.487 16.2432 18.6839C16.5945 19.8809 17.3101 20.9387 18.2905 21.71C16.6106 22.383 15.1448 23.4994 14.0494 24.9399C12.954 26.3805 12.27 28.0913 12.0705 29.89C12.056 30.0213 12.0676 30.1542 12.1045 30.2811C12.1414 30.4079 12.203 30.5263 12.2856 30.6293C12.4525 30.8375 12.6953 30.9708 12.9605 31C13.2257 31.0292 13.4916 30.9518 13.6998 30.7849C13.908 30.618 14.0413 30.3752 14.0705 30.11C14.2901 28.1552 15.2222 26.3498 16.6887 25.0388C18.1552 23.7278 20.0534 23.003 22.0205 23.003C23.9876 23.003 25.8857 23.7278 27.3523 25.0388C28.8188 26.3498 29.7509 28.1552 29.9705 30.11C29.9977 30.3557 30.1149 30.5827 30.2996 30.747C30.4843 30.9114 30.7233 31.0015 30.9705 31H31.0805C31.3426 30.9698 31.5822 30.8373 31.747 30.6313C31.9119 30.4252 31.9886 30.1624 31.9605 29.9C31.76 28.0962 31.0724 26.381 29.9713 24.9382C28.8703 23.4954 27.3974 22.3795 25.7105 21.71ZM22.0005 21C21.2094 21 20.436 20.7654 19.7782 20.3259C19.1204 19.8864 18.6077 19.2616 18.305 18.5307C18.0022 17.7998 17.923 16.9956 18.0773 16.2196C18.2317 15.4437 18.6126 14.731 19.1721 14.1716C19.7315 13.6122 20.4442 13.2312 21.2201 13.0769C21.996 12.9225 22.8003 13.0017 23.5312 13.3045C24.2621 13.6072 24.8868 14.1199 25.3264 14.7777C25.7659 15.4355 26.0005 16.2089 26.0005 17C26.0005 18.0609 25.5791 19.0783 24.8289 19.8284C24.0788 20.5786 23.0614 21 22.0005 21Z" fill="white"/>
</svg>
