<svg width="44" height="44" viewBox="0 0 44 44" fill="none" xmlns="http://www.w3.org/2000/svg">
<circle cx="22" cy="22" r="22" fill="#F16523"/>
<g clip-path="url(#clip0_3011_10389)">
<path d="M32 18.1C31.7 18 31.5 18.1 31.3 18.2C31.1 18.4 30.9 18.6 30.9 18.9L29.6 25.8H17.3C16.6 22.3 15.3 15.9 15.1 15.1C14.7 13.6 13.3 13.4 12.7 13.4H11C10.5 13.4 10 13.8 10 14.4C10 15 10.4 15.4 11 15.4H12.8C13 15.4 13.1 15.5 13.1 15.5C13.1 15.5 13.1 15.5 13.1 15.6C13.3 16.3 14 19.6 14.6 22.8C15.2 25.7 15.7 28.4 15.7 28.5C15.7 28.6 15.7 28.6 15.8 28.7C15.1 29.1 14.6 29.9 14.6 30.7C14.7 31.9 15.7 33 17 33C18.3 33 19.3 31.9 19.3 30.7V30.4H25.8V30.7C25.8 32 26.9 33 28.1 33C29.4 33 30.4 32 30.4 30.7C30.4 29.4 29.4 28.4 28.1 28.4H18.2C17.9 28.4 17.8 28.3 17.8 28.2C17.8 28.2 17.8 28 17.7 27.9H30.5C31 27.9 31.3 27.6 31.4 27.1L32.9 19.2C33 18.7 32.6 18.2 32 18.1ZM17.3 30.6C17.3 30.8 17.1 30.9 17 30.9C16.9 30.9 16.7 30.7 16.7 30.6C16.7 30.4 16.9 30.3 17 30.3C17.1 30.3 17.3 30.4 17.3 30.6ZM27.7 30.6C27.7 30.4 27.9 30.3 28 30.3C28.2 30.3 28.3 30.5 28.3 30.6C28.3 30.8 28.1 30.9 28 30.9C27.9 30.9 27.7 30.7 27.7 30.6Z" fill="white"/>
</g>
<defs>
<clipPath id="clip0_3011_10389">
<rect width="24" height="24" fill="white" transform="translate(10 9)"/>
</clipPath>
</defs>
</svg>
