<svg width="40" height="40" viewBox="0 0 40 40" fill="none" xmlns="http://www.w3.org/2000/svg">
    <path d="M31.6668 10.8334H29.5335L29.0002 9.16668C28.6544 8.18873 28.0131 7.34252 27.165 6.74528C26.3169 6.14805 25.3041 5.82935 24.2668 5.83335H15.7335C14.6861 5.83531 13.6657 6.16616 12.8164 6.77919C11.9672 7.39223 11.3318 8.2565 11.0002 9.25002L10.4668 10.9167H8.3335C7.00741 10.9167 5.73564 11.4435 4.79796 12.3812C3.86028 13.3188 3.3335 14.5906 3.3335 15.9167V29.25C3.3335 30.5761 3.86028 31.8479 4.79796 32.7856C5.73564 33.7232 7.00741 34.25 8.3335 34.25H31.6668C32.9929 34.25 34.2647 33.7232 35.2024 32.7856C36.14 31.8479 36.6668 30.5761 36.6668 29.25V15.9167C36.6779 15.2531 36.5567 14.5939 36.3104 13.9777C36.0641 13.3614 35.6976 12.8003 35.2322 12.3272C34.7668 11.854 34.2118 11.4782 33.5997 11.2218C32.9876 10.9653 32.3305 10.8333 31.6668 10.8334ZM33.3335 29.1667C33.3335 29.6087 33.1579 30.0326 32.8453 30.3452C32.5328 30.6578 32.1089 30.8334 31.6668 30.8334H8.3335C7.89147 30.8334 7.46755 30.6578 7.15498 30.3452C6.84242 30.0326 6.66683 29.6087 6.66683 29.1667V15.8334C6.66683 15.3913 6.84242 14.9674 7.15498 14.6548C7.46755 14.3423 7.89147 14.1667 8.3335 14.1667H11.6668C12.0303 14.1857 12.3899 14.0851 12.6909 13.8805C12.9918 13.6758 13.2175 13.3783 13.3335 13.0334L14.2335 10.3C14.3453 9.96898 14.5583 9.68146 14.8424 9.47809C15.1266 9.27472 15.4674 9.16578 15.8168 9.16668H24.3502C24.6996 9.16578 25.0404 9.27472 25.3245 9.47809C25.6087 9.68146 25.8217 9.96898 25.9335 10.3L26.8335 13.0334C26.9404 13.3513 27.1408 13.6295 27.4084 13.8317C27.6761 14.0339 27.9985 14.1507 28.3335 14.1667H31.6668C32.1089 14.1667 32.5328 14.3423 32.8453 14.6548C33.1579 14.9674 33.3335 15.3913 33.3335 15.8334V29.1667ZM20.0002 14.1667C18.6816 14.1667 17.3927 14.5577 16.2964 15.2902C15.2 16.0228 14.3455 17.064 13.841 18.2821C13.3364 19.5003 13.2044 20.8407 13.4616 22.134C13.7188 23.4272 14.3538 24.615 15.2861 25.5474C16.2185 26.4797 17.4064 27.1147 18.6996 27.3719C19.9928 27.6292 21.3332 27.4971 22.5514 26.9925C23.7696 26.488 24.8107 25.6335 25.5433 24.5372C26.2758 23.4408 26.6668 22.1519 26.6668 20.8334C26.6668 19.0652 25.9645 17.3695 24.7142 16.1193C23.464 14.8691 21.7683 14.1667 20.0002 14.1667ZM20.0002 24.1667C19.3409 24.1667 18.6964 23.9712 18.1483 23.6049C17.6001 23.2386 17.1729 22.7181 16.9206 22.109C16.6683 21.4999 16.6023 20.8297 16.7309 20.1831C16.8595 19.5364 17.177 18.9425 17.6431 18.4763C18.1093 18.0102 18.7033 17.6927 19.3499 17.5641C19.9965 17.4354 20.6667 17.5015 21.2758 17.7538C21.8849 18.006 22.4055 18.4333 22.7717 18.9815C23.138 19.5296 23.3335 20.1741 23.3335 20.8334C23.3335 21.7174 22.9823 22.5653 22.3572 23.1904C21.7321 23.8155 20.8842 24.1667 20.0002 24.1667Z" fill="#0B2A4A"/>
  </svg>