<svg width="135" xmlns="http://www.w3.org/2000/svg" viewBox="0 0 250 160" style="height:auto!important;enable-background:new 0 0 250 160"><style>.stTsquare-fast_shipping2{fill:#303030!important}</style><path style="fill:#fff!important" d="M10 12.5h230v135H10z"/><path d="M240.4 147.9H9.6V12.1h230.8v135.8zm-230-.8h229.3V12.9H10.4v134.2z" style="fill:#7c7c7c!important"/><path class="stTsquare-fast_shipping2" d="M44.5 99.9H40l-.8-4.1c-.5-.3-1.3-.6-2.3-.9s-2.1-.4-3.2-.4c-1.6 0-2.9.3-3.8 1-.9.7-1.3 1.6-1.3 2.7 0 1 .5 1.8 1.4 2.5.9.7 2.6 1.3 4.9 2.1 3.3.9 5.8 2.1 7.5 3.6 1.7 1.5 2.6 3.5 2.6 5.9 0 2.6-1 4.6-3 6.1s-4.7 2.2-8 2.2c-2.4 0-4.5-.4-6.4-1.1-1.9-.8-3.5-1.8-4.8-3.1v-6.3h4.6l.6 4.3c.6.5 1.4.9 2.5 1.2 1 .3 2.2.5 3.5.5 1.6 0 2.9-.3 3.8-1s1.3-1.6 1.3-2.7c0-1.2-.4-2.1-1.2-2.8s-2.2-1.4-4.3-2c-3.6-1-6.2-2.2-8.1-3.7-1.8-1.4-2.7-3.3-2.7-5.8 0-2.4 1-4.4 3.1-6 2.1-1.5 4.6-2.3 7.8-2.4 2.3 0 4.4.3 6.3 1 1.9.7 3.5 1.6 4.8 2.8v6.4zm3.7-5.9v-3.6h12.4V94l-3.2.6v8.6h12.2v-8.6l-3.2-.6v-3.6h12.4V94l-3.2.6v21.5l3.2.6v3.6H66.4v-3.6l3.2-.6v-8.2H57.4v8.2l3.2.6v3.6H48.2v-3.6l3.2-.6V94.6l-3.2-.6zm33.7 0v-3.6h12.4V94l-3.2.6v21.5l3.2.6v3.6H81.9v-3.6l3.2-.6V94.6l-3.2-.6zm29.8-3.7c3.4 0 6.1.9 8.1 2.6 2 1.8 3 4.1 3 6.9 0 2.9-1 5.2-3 6.9-2 1.7-4.7 2.6-8.1 2.6h-5.1v6.6l3.2.6v3.6H97.5v-3.6l3.2-.6V94.6l-3.2-.6v-3.6h14.2zm-5.1 14.5h5.1c1.7 0 2.9-.5 3.8-1.4s1.3-2.1 1.3-3.5-.4-2.6-1.3-3.6-2.1-1.4-3.8-1.4h-5.1v9.9zm33.2-14.5c3.4 0 6.1.9 8.1 2.6 2 1.8 3 4.1 3 6.9 0 2.9-1 5.2-3 6.9-2 1.7-4.7 2.6-8.1 2.6h-5.1v6.6l3.2.6v3.6h-12.4v-3.6l3.2-.6V94.6l-3.2-.6v-3.6h14.3zm-5 14.5h5.1c1.7 0 2.9-.5 3.8-1.4s1.3-2.1 1.3-3.5-.4-2.6-1.3-3.6-2.1-1.4-3.8-1.4h-5.1v9.9zM153.6 94v-3.6H166V94l-3.2.6v21.5l3.2.6v3.6h-12.4v-3.6l3.2-.6V94.6l-3.2-.6zm46.2-3.7V94l-3.2.6v25.7h-6l-12.1-20.2h-.1V116l3.2.6v3.6h-12.4v-3.6l3.2-.6V94.6l-3.2-.6v-3.6h9.2l12.1 20.2h.1v-16l-3.2-.6v-3.6h12.4zm27.6 26.7c-1 1-2.4 1.8-4.3 2.6s-4.2 1.2-7.1 1.2c-4 0-7.3-1.4-9.9-4.1-2.5-2.7-3.8-6.2-3.8-10.6v-1c0-4.5 1.3-8.1 3.8-10.9 2.5-2.8 5.8-4.2 9.8-4.2 2.3 0 4.5.4 6.4 1.1 1.9.7 3.6 1.8 4.8 3v6h-4.4l-.8-4c-.5-.5-1.3-.8-2.2-1.1-.9-.3-1.9-.4-3.1-.4-2.6 0-4.7 1-6.1 2.9-1.5 1.9-2.2 4.5-2.2 7.6v1.1c0 3 .7 5.5 2.1 7.3s3.5 2.7 6.2 2.7c1.2 0 2.2-.1 2.9-.3.7-.2 1.3-.4 1.8-.7V110l-4.3-.3v-4.2h10.3V117z"/><path d="m24.8 69.4 3.3-.6V46.3l-3.3-.6v-3.8h24.9v8.6h-4.8l-.3-3.7H34.4v8.6h11v4.8h-11v8.6l3.4.6v3.8h-13v-3.8zm21.3 0 2.2-.3 9.5-27.2h6.4l9.5 27.2 2.2.3v3.8H65.3v-3.8l2.2-.4-1.4-4.3H55.9L54.5 69l2.2.4v3.8H46.1v-3.8zm11.3-9.3h7.2l-3.5-11H61l-3.6 11zm45.2-8.2h-4.7l-.8-4.3c-.5-.3-1.3-.6-2.4-.9-1-.3-2.2-.4-3.3-.4-1.7 0-3 .4-4 1.1-.9.7-1.4 1.6-1.4 2.8 0 1.1.5 1.9 1.5 2.6s2.7 1.4 5.1 2.2c3.5 1 6.1 2.2 7.9 3.8 1.8 1.6 2.7 3.6 2.7 6.2 0 2.7-1.1 4.8-3.2 6.3s-4.9 2.3-8.4 2.3c-2.5 0-4.7-.4-6.7-1.2s-3.7-1.9-5-3.3v-6.5h4.9l.7 4.4c.6.5 1.5.9 2.6 1.3 1.1.3 2.3.5 3.6.5 1.7 0 3-.4 3.9-1.1.9-.7 1.3-1.6 1.3-2.8 0-1.2-.4-2.2-1.3-2.9-.9-.7-2.3-1.4-4.5-2.1-3.7-1.1-6.5-2.3-8.4-3.8-1.9-1.5-2.9-3.5-2.9-6.1 0-2.5 1.1-4.6 3.2-6.2 2.1-1.6 4.8-2.4 8.1-2.5 2.4 0 4.6.4 6.6 1.1 2 .7 3.6 1.7 5 2.9v6.6zm31.4-10v8.3h-4.8l-.3-3.5h-5.8v22l3.4.6v3.8h-13v-3.8l3.4-.6v-22h-5.7l-.3 3.5h-4.8v-8.3H134z" style="fill:#1e5186!important"/><circle transform="rotate(-45.001 179.55 72.848)" class="stTsquare-fast_shipping2" cx="179.6" cy="72.8" r="7.1"/><circle class="stTsquare-fast_shipping2" cx="210.6" cy="72.8" r="7.1"/><path class="stTsquare-fast_shipping2" d="M223.7 59.8c-.2-1.3-2.6-11.4-2.6-11.4s-.2-2.3-2.8-2.5c-1.7-.1-16.6-1.8-16.6-1.8s-3.5-.2-3.5 3.1v12.5h-1.9V43.6s-.1-4.3-3.6-4.3h-29s-3.5-.4-3.5 3.6v1.6H151c-.8 0-1.4.6-1.4 1.4 0 .8.6 1.4 1.4 1.4h12.9c.8 0 1.4.6 1.4 1.4 0 .8-.6 1.4-1.4 1.4h-11c-.8 0-1.4.6-1.4 1.4 0 .8.6 1.4 1.4 1.4h13.5c.8 0 1.4.6 1.4 1.4 0 .8-.6 1.4-1.4 1.4h-10.6c-.8 0-1.4.6-1.4 1.4 0 .8.6 1.4 1.4 1.4H169c.8 0 1.4.6 1.4 1.4 0 .8-.6 1.4-1.4 1.4h-9v8s-.4 2.8 2.6 2.8h7.5s1.8-8.6 9.4-8.6 9.4 8.6 9.4 8.6h12s.8-8.5 9.6-8.5c8.8 0 9.4 8.5 9.4 8.5h3.4s2.6 0 2.6-2.5v-6.5s.5-3.3-2.2-3.3zm-40.4-6.3.9 5.1-4.6-2.4-4.6 2.4.9-5.1-3.7-3.6 5.1-.7 2.3-4.6 2.3 4.6 5.1.7-3.7 3.6z"/></svg>