<svg width="21" height="21" viewBox="0 0 21 21" fill="none" xmlns="http://www.w3.org/2000/svg">
<path d="M10.5898 0.25C5.06984 0.25 0.589844 4.73 0.589844 10.25C0.589844 15.77 5.06984 20.25 10.5898 20.25C16.1098 20.25 20.5898 15.77 20.5898 10.25C20.5898 4.73 16.1098 0.25 10.5898 0.25ZM16.0798 10.97L14.2098 12.26C12.8998 13.16 11.5198 13.96 10.0798 14.63L8.28984 15.47C7.73984 15.79 7.03984 15.39 7.03984 14.75L6.96984 14.26C6.59984 11.6 6.59984 8.9 6.96984 6.24L7.03984 5.75C7.03984 5.11 7.72984 4.71 8.28984 5.03L10.0698 5.86C11.5198 6.54 12.9098 7.33 14.2198 8.24L16.0798 9.52C16.6298 9.84 16.6298 10.64 16.0798 10.96V10.97Z" fill="#FB6413"/>
</svg>
