<svg xmlns="http://www.w3.org/2000/svg" version="1.0" width="512.000000pt" height="512.000000pt" viewBox="0 0 512.000000 512.000000" preserveAspectRatio="xMidYMid meet">
<metadata>
Created by potrace 1.16, written by Peter Selinger 2001-2019
</metadata>
<g transform="translate(0.000000,512.000000) scale(0.100000,-0.100000)" fill="#000000" stroke="none">
<path d="M2248 4945 c-817 -112 -1509 -615 -1860 -1353 -155 -325 -228 -657 -228 -1032 0 -291 32 -493 120 -762 287 -872 1052 -1502 1974 -1623 154 -20 459 -20 613 0 834 110 1546 638 1888 1402 142 318 205 622 205 983 0 291 -32 493 -120 761 -286 872 -1053 1503 -1973 1624 -145 19 -481 19 -619 0z m444 -990 c24 -17 222 -222 441 -455 297 -318 404 -439 424 -479 72 -146 -4 -334 -155 -385 -32 -11 -85 -16 -179 -16 l-133 0 0 -672 c0 -631 -2 -676 -19 -713 -20 -46 -69 -91 -109 -103 -35 -9 -769 -9 -804 0 -40 12 -89 57 -109 103 -17 37 -19 82 -19 713 l0 672 -133 0 c-94 0 -147 5 -179 16 -107 36 -182 145 -182 264 0 110 20 139 315 455 625 669 590 638 721 633 66 -3 82 -7 120 -33z" fill="#FB6717"/>
</g>
</svg>