<svg width="135" xmlns="http://www.w3.org/2000/svg" viewBox="0 0 250 160" style="height:auto!important;enable-background:new 0 0 250 160"><path style="fill:#fff!important" d="M10 12.5h230v135H10z"/><path d="M240.4 147.9H9.6V12.1h230.8v135.8zm-230-.8h229.3V12.9H10.4v134.2z" style="fill:#7c7c7c!important"/><path d="M45 111c0 4.2-1.2 7.7-3.6 10.4-2.4 2.7-5.5 4.1-9.4 4.1-3.9 0-7-1.4-9.4-4.1-2.4-2.7-3.6-6.2-3.6-10.4v-.4c0-4.2 1.2-7.6 3.6-10.4 2.4-2.8 5.5-4.1 9.4-4.1 3.9 0 7 1.4 9.4 4.1 2.4 2.8 3.6 6.2 3.6 10.4v.4zm-5.7-.5c0-3-.6-5.4-1.9-7.2-1.2-1.9-3.1-2.8-5.5-2.8s-4.2.9-5.4 2.8c-1.2 1.8-1.8 4.3-1.8 7.3v.5c0 3 .6 5.5 1.8 7.3 1.2 1.8 3 2.8 5.4 2.8 2.4 0 4.3-.9 5.5-2.8 1.2-1.8 1.8-4.3 1.8-7.3v-.6zm21.7-14c3.3 0 5.8.7 7.7 2.2 1.9 1.5 2.8 3.5 2.8 6.2 0 1.4-.4 2.7-1.2 3.8-.8 1.1-1.9 1.9-3.4 2.6 1.7.5 2.9 1.3 3.7 2.5s1.1 2.6 1.1 4.3v1.5c0 .6.1 1.1.4 1.5.2.3.7.6 1.2.6l.7.1v3.5h-3c-1.9 0-3.2-.5-4-1.5-.8-1-1.1-2.3-1.1-3.9v-1.6c0-1.4-.4-2.5-1.1-3.3-.7-.8-1.8-1.2-3.1-1.3H57v7.6l3.1.6v3.4h-12v-3.4l3.1-.6v-20.6l-3.1-.6v-3.5H61zm-4.1 12.6h4c1.6 0 2.8-.3 3.6-1 .8-.7 1.2-1.7 1.2-3s-.4-2.3-1.2-3.1c-.8-.8-2-1.2-3.5-1.2h-4.1v8.3zm32.7-12.6c3.5 0 6.4 1.1 8.7 3.4 2.3 2.2 3.4 5.1 3.4 8.6v4.7c0 3.5-1.1 6.4-3.4 8.6-2.3 2.2-5.2 3.3-8.7 3.3H76.7v-3.4l3.1-.6v-20.6l-3.1-.6v-3.5h12.9zm-4.1 4.4v19.8h3.8c2.1 0 3.7-.7 4.8-2.1 1.2-1.4 1.8-3.2 1.8-5.5v-4.8c0-2.2-.6-4-1.8-5.4-1.2-1.4-2.8-2.1-4.8-2.1h-3.8zm38.3 11.6h-9.7v8.2h9.3l.3-3.4h4.4v7.8h-22.7v-3.4l3.1-.6v-20.6l-3.1-.6v-3.5h22.7v7.9h-4.4l-.3-3.4h-9.2v7.2h9.7v4.4zm20.9-16c3.3 0 5.8.7 7.7 2.2 1.9 1.5 2.8 3.5 2.8 6.2 0 1.4-.4 2.7-1.2 3.8-.8 1.1-1.9 1.9-3.4 2.6 1.7.5 2.9 1.3 3.7 2.5s1.1 2.6 1.1 4.3v1.5c0 .6.1 1.1.4 1.5.2.3.7.6 1.2.6l.7.1v3.5h-3c-1.9 0-3.2-.5-4-1.5-.8-1-1.1-2.3-1.1-3.9v-1.6c0-1.4-.4-2.5-1.1-3.3-.7-.8-1.8-1.2-3.1-1.3h-4.7v7.6l3.1.6v3.4h-11.9v-3.4l3.1-.6v-20.6l-3.1-.6v-3.5h12.8zm-4 12.6h4c1.6 0 2.8-.3 3.6-1 .8-.7 1.2-1.7 1.2-3s-.4-2.3-1.2-3.1c-.8-.8-2-1.2-3.5-1.2h-4.1v8.3zm19.7-9.2v-3.5h11.9v3.5l-3.1.6v20.6l3.1.6v3.4h-11.9v-3.4l3.1-.6v-20.6l-3.1-.6zm44.2-3.4v3.5l-3.1.6v24.6h-5.7l-11.6-19.3h-.1v15.2l3.1.6v3.4h-11.9v-3.4l3.1-.6v-20.6l-3.1-.6v-3.5h8.9l11.6 19.3h.1v-15.2l-3.1-.6v-3.5h11.8zM231 122c-.9.9-2.3 1.8-4.1 2.5-1.8.7-4 1.1-6.8 1.1-3.9 0-7-1.3-9.5-3.9-2.4-2.6-3.6-6-3.6-10.1v-1c0-4.3 1.2-7.8 3.6-10.5 2.4-2.7 5.5-4 9.4-4 2.2 0 4.3.4 6.2 1.1s3.4 1.7 4.6 2.9v5.8h-4.3l-.8-3.8c-.5-.4-1.2-.8-2.1-1.1s-1.8-.4-3-.4c-2.5 0-4.5.9-5.9 2.8-1.4 1.9-2.1 4.3-2.1 7.3v1c0 2.9.7 5.2 2 7 1.4 1.7 3.3 2.6 5.9 2.6 1.2 0 2.1-.1 2.8-.3.7-.2 1.3-.4 1.7-.7v-4.9l-4.1-.3v-4h9.9V122z" style="fill:#303030!important"/><path d="M41.1 61.3h-4.2l-.7-3.9c-.5-.3-1.2-.6-2.2-.8-.9-.2-1.9-.3-3-.3-1.6 0-2.8.3-3.6 1-.8.7-1.3 1.5-1.3 2.5s.4 1.7 1.3 2.4c.9.6 2.4 1.3 4.6 1.9 3.1.9 5.5 2 7.1 3.4 1.6 1.4 2.4 3.3 2.4 5.6 0 2.4-1 4.3-2.9 5.7-1.9 1.4-4.4 2.1-7.6 2.1-2.2 0-4.3-.4-6.1-1.1-1.8-.7-3.3-1.7-4.5-2.9V71h4.4l.6 4c.6.5 1.3.8 2.3 1.2 1 .3 2.1.5 3.3.5 1.6 0 2.7-.3 3.5-1 .8-.6 1.2-1.5 1.2-2.5 0-1.1-.4-2-1.2-2.6s-2.1-1.3-4-1.9c-3.3-1-5.9-2.1-7.6-3.5-1.7-1.3-2.6-3.2-2.6-5.5s1-4.2 2.9-5.6c1.9-1.5 4.4-2.2 7.3-2.2 2.2 0 4.1.3 5.9 1s3.3 1.5 4.5 2.6v5.8zm21.7 6.8h-9.6v8.1h9.1l.3-3.4h4.3v7.7H44.5v-3.4l3-.6V56.3l-3-.6v-3.4h22.3V60h-4.3l-.3-3.4h-9v7.1h9.6v4.4zm31-6.3h-4.2l-.6-3.7c-.6-.6-1.3-1-2.1-1.3-.8-.3-1.8-.5-3-.5-2.5 0-4.3.9-5.7 2.7-1.3 1.8-2 4.1-2 7v1c0 2.9.7 5.2 2 7 1.3 1.8 3.2 2.7 5.6 2.7 1.1 0 2.1-.2 3.1-.5.9-.3 1.6-.8 2.1-1.3l.6-3.8h4.2v5.6c-1.1 1.3-2.6 2.4-4.4 3.2s-3.7 1.2-5.9 1.2c-3.8 0-6.9-1.3-9.3-3.9-2.4-2.6-3.6-6-3.6-10.1v-1c0-4.1 1.2-7.5 3.6-10.1 2.4-2.6 5.5-4 9.3-4 2.2 0 4.2.4 5.9 1.2 1.8.8 3.2 1.8 4.4 3.2v5.4zm14.8-9.5v3.4l-3 .6V71c0 1.9.5 3.3 1.5 4.2 1 .9 2.4 1.4 4.1 1.4 1.8 0 3.2-.5 4.2-1.4 1-.9 1.5-2.3 1.5-4.2V56.3l-3-.6v-3.4h11.7v3.4l-3 .6V71c0 3.2-1 5.6-3.1 7.3-2.1 1.7-4.8 2.6-8.2 2.6-3.4 0-6.1-.9-8.2-2.6-2.1-1.7-3.1-4.2-3.1-7.3V56.3l-3-.6v-3.4h11.6zm32.1 0c3.2 0 5.7.7 7.5 2.2 1.8 1.5 2.7 3.5 2.7 6.1 0 1.4-.4 2.7-1.1 3.7-.8 1-1.9 1.9-3.4 2.5 1.7.5 2.9 1.3 3.6 2.5.7 1.1 1.1 2.6 1.1 4.3V75c0 .6.1 1.1.4 1.4.2.3.7.5 1.2.6l.7.1v3.4h-2.9c-1.8 0-3.1-.5-3.9-1.5-.8-1-1.1-2.3-1.1-3.9v-1.6c0-1.4-.4-2.4-1.1-3.2-.7-.8-1.8-1.2-3.1-1.2h-4.6v7.4l3 .6v3.4H128v-3.4l3-.6V56.3l-3-.6v-3.4h12.7zm-4 12.4h3.9c1.6 0 2.8-.3 3.5-1 .8-.7 1.2-1.6 1.2-2.9 0-1.3-.4-2.3-1.2-3-.8-.8-1.9-1.1-3.5-1.1h-4v8zm37.6 3.4h-9.6v8.1h9.1l.3-3.4h4.3v7.7h-22.3v-3.4l3-.6V56.3l-3-.6v-3.4h22.3V60h-4.3l-.3-3.4h-9v7.1h9.6v4.4z" style="fill:#1e5186!important"/><path d="M200.8 54.7v-8.6s.7-11.7 12.8-11.7c12.1 0 13 11.2 13 11.2l.1 9.1c0 .2-.2.4-.4.4h-4.8c-.2 0-.4-.2-.4-.4l-.1-8.2s.3-6.5-7.2-6.5-7.2 6.4-7.2 6.4v8.2c0 .2-.2.4-.4.4h-4.8c-.4.1-.6-.1-.6-.3zm30 21.8V60.9c0-4.8-4.1-4.4-4.1-4.4h-25.8s-4.1-.4-4.1 4.4v15.5s-.3 4.8 4.3 4.8h25.4c4.6.1 4.3-4.7 4.3-4.7z" style="fill:#212121!important"/></svg>