<svg xmlns="http://www.w3.org/2000/svg" id="Layer_1" data-name="Layer 1" viewBox="0 0 363.04 394.08">
    <defs>
      <style>
        .cls-1 {
          fill: #010101;
        }
  
        .cls-1, .cls-2, .cls-3 {
          stroke-width: 0px;
        }
  
        .cls-2 {
          fill: #f36c28;
        }
  
        .cls-4 {
          stroke: #f36c28;
          stroke-dasharray: 0 0 4.92 1.43;
        }
  
        .cls-4, .cls-5 {
          fill: none;
          stroke-miterlimit: 10;
          stroke-width: .98px;
        }
  
        .cls-3 {
          fill: #231f20;
        }
  
        .cls-5 {
          stroke: #000;
          stroke-dasharray: 0 0 2.95 1.43;
        }
      </style>
    </defs>
    <g>
      <path class="cls-3" d="M181.79,36.9c-31.97,0-47.03-13.43-47.18-13.56l.34-.37c.15.13,15.08,13.43,46.84,13.43s46.64-13.3,46.78-13.43l.35.37c-.14.14-14.75,13.57-47.12,13.57Z"/>
      <path class="cls-3" d="M181.78,49.6c-23.98,0-38.26-6.58-43.29-9.4l.16-.29c5,2.81,19.22,9.36,43.12,9.36s38.52-6.69,43.53-9.56l.17.29c-5.03,2.89-19.37,9.6-43.7,9.6Z"/>
      <g>
        <path class="cls-3" d="M181.79,87.46c-11.92,0-22.38-3.17-31.09-9.42-6.97-5-12.83-11.97-17.44-20.72-7.84-14.88-9.32-29.97-9.33-30.12,0-.1.06-.19.16-.19.1,0,.19.06.19.16.01.15,1.49,15.17,9.29,29.99,7.19,13.66,21.4,29.94,48.21,29.94s41-16.28,48.18-29.94c7.8-14.82,9.26-29.84,9.27-29.99,0-.1.1-.17.19-.16.1,0,.17.1.16.19-.01.15-1.48,15.23-9.31,30.12-4.6,8.75-10.46,15.72-17.42,20.72-8.71,6.25-19.16,9.42-31.08,9.42Z"/>
        <path class="cls-3" d="M181.79,74.68c-21.09,0-32.8-14.02-38.91-25.77-6.11-11.77-7.99-23.68-8.24-25.5l-11.01,3.95-.13-.36,11.23-4.03c.06-.02.12-.01.17.02.05.03.08.08.09.14.02.13,1.66,12.96,8.24,25.61,6.06,11.66,17.67,25.56,38.57,25.56s32.76-13.9,38.75-25.57c6.5-12.66,8-25.48,8.01-25.6,0-.06.04-.11.09-.14.05-.03.11-.04.17-.02l11.16,4.03-.13.36-10.94-3.95c-.24,1.83-1.98,13.73-8.02,25.5-6.04,11.76-17.72,25.77-39.09,25.77Z"/>
      </g>
      <path class="cls-3" d="M283.81,160.45h-.1v-.15l-.07.02c-8.23-30.07-6.1-59.73-2.85-79.33,3.51-21.23,9.05-35.53,9.1-35.67l.33.13c-.06.14-5.58,14.42-9.08,35.61-3.24,19.55-5.37,49.16,2.85,79.16.01.05,0,.11-.03.16-.03.04-.09.07-.14.07Z"/>
      <path class="cls-3" d="M79.8,160.45h-.1c-.06,0-.11-.03-.14-.07s-.05-.1-.03-.16c8.22-30,6.08-59.61,2.85-79.16-3.51-21.19-9.03-35.47-9.08-35.61l.33-.13c.06.14,5.59,14.45,9.1,35.67,3.24,19.59,5.38,49.26-2.85,79.33l-.07-.02v.15Z"/>
      <path class="cls-3" d="M181.99,394.08h-.44c-89.52,0-101.46-4.81-101.92-5.01-.21-.09-.35-.31-.35-.54.2-7.48.3-20.75.41-33.57.08-9.59.15-18.65.26-23.86,2.36-118.81-.11-162.16-.62-169.58-1.82,1.68-6.17,5.7-10.51,9.64-11.84,10.75-12.02,10.59-12.54,10.11C30.5,158.13.96,128.62.66,128.32c-.21-.21-.23-.54-.05-.77C56.35,56.46,72.13,45.56,73.09,44.93c0,0,.02-.01.03-.02.04-.02.07-.04.11-.06,2.33-1.27,28.78-10.61,50.68-18.26,6.77-2.37,11.44-3.99,11.44-3.99.21-.08.45-.02.61.15.12.13,12.38,12.65,45.61,12.65h.4c33.23,0,45.49-12.52,45.61-12.65.16-.16.4-.22.61-.15,0,0,4.66,1.62,11.44,3.99,21.89,7.65,48.34,16.99,50.68,18.26.04.01.08.03.11.06,0,0,.02.01.03.02.93.61,16.69,11.46,72.48,82.62.18.23.16.56-.05.77-.3.3-29.84,29.81-55.61,52.95-.53.48-.71.63-12.54-10.11-4.34-3.94-8.69-7.96-10.51-9.64-.51,7.41-2.97,50.77-.62,169.58.1,5.21.18,14.27.25,23.85.1,12.83.21,26.09.41,33.58,0,.23-.13.45-.35.54-.23.1-6.15,2.55-41.26,3.99l-.02-.58.02.58c-16.53.68-36.94,1.02-60.66,1.02ZM181.9,392.92h.08c23.71,0,44.1-.34,60.62-1.02,30.55-1.25,38.8-3.25,40.48-3.77-.19-7.56-.3-20.58-.4-33.18-.08-9.58-.15-18.63-.25-23.84-2.61-131.29.68-170.51.71-170.89.02-.22.16-.41.37-.49.21-.08.44-.04.6.12,8.15,7.57,20.51,18.84,22.66,20.3,24.13-21.69,51.46-48.85,54.92-52.29-53.91-68.74-70.58-81.06-71.82-81.92-.03-.02-.06-.03-.1-.05-1.4-.83-19.82-7.46-50.53-18.2-5.7-1.99-9.9-3.45-11.09-3.87-2,1.91-14.7,12.74-46.18,12.74h-.4c-31.48,0-44.18-10.84-46.18-12.74-1.19.41-5.4,1.88-11.09,3.87-30.71,10.74-49.13,17.37-50.53,18.2-.03.02-.07.04-.1.05-1.23.86-17.9,13.17-71.82,81.92,3.45,3.44,30.79,30.6,54.92,52.29,2.15-1.47,14.5-12.74,22.66-20.3.16-.15.4-.2.6-.12.21.08.35.27.37.49.03.38,3.31,39.6.71,170.89-.1,5.21-.18,14.26-.26,23.84-.1,12.59-.21,25.61-.4,33.17,2.49.78,19.24,4.79,101.1,4.79h.36Z"/>
    </g>
    <g>
      <path class="cls-1" d="M147.23,177.06l-1.8-9.16h1.56l1.13,6.3,1.37-6.3h1.81l1.32,6.4,1.16-6.4h1.53l-1.83,9.16h-1.62l-1.5-6.85-1.49,6.85h-1.64Z"/>
      <path class="cls-1" d="M156.03,177.06v-9.16h1.51v9.16h-1.51Z"/>
      <path class="cls-1" d="M158.98,167.89h2.77c.7,0,1.23.08,1.58.23s.68.42.98.79c.3.37.53.85.71,1.44s.26,1.33.26,2.21c0,.79-.09,1.48-.27,2.07s-.41,1.05-.68,1.39c-.28.34-.61.6-1,.77-.39.17-.89.26-1.5.26h-2.85v-9.16ZM160.5,169.44v6.06h1.14c.49,0,.84-.05,1.06-.14s.4-.23.54-.42c.14-.19.26-.48.35-.88.09-.4.14-.93.14-1.58s-.05-1.21-.14-1.6-.24-.7-.44-.92c-.2-.22-.44-.37-.72-.44-.21-.05-.62-.08-1.23-.08h-.69Z"/>
      <path class="cls-1" d="M168.26,177.06v-7.61h-2.23v-1.55h5.97v1.55h-2.23v7.61h-1.51Z"/>
      <path class="cls-1" d="M172.99,177.06v-9.16h1.51v3.61h2.98v-3.61h1.51v9.16h-1.51v-4.01h-2.98v4.01h-1.51Z"/>
    </g>
    <g>
      <path class="cls-1" d="M40.76,36.08l1.39-.54c.45,1.09,1.13,1.52,2.03,1.29.44-.11.76-.32.96-.62.19-.3.25-.62.16-.96-.05-.2-.14-.36-.27-.48-.13-.12-.29-.2-.5-.24-.21-.04-.68-.08-1.44-.11-.67-.03-1.19-.11-1.53-.26-.35-.15-.65-.38-.92-.69s-.45-.68-.56-1.1c-.13-.48-.13-.95,0-1.39s.35-.82.68-1.11c.34-.3.79-.52,1.36-.67.86-.22,1.58-.16,2.18.18.6.34,1.03.94,1.28,1.79l-1.45.46c-.19-.46-.41-.76-.68-.89s-.59-.15-.99-.05c-.4.1-.68.26-.85.48s-.23.45-.16.7c.06.24.21.42.45.53.24.11.73.18,1.48.2.79.02,1.39.11,1.77.26s.72.39.99.72c.27.33.47.76.61,1.29.2.77.13,1.48-.21,2.13-.34.65-1.01,1.1-2.02,1.36-1.78.46-3.04-.3-3.77-2.27Z"/>
      <path class="cls-1" d="M48.7,37.11l-2.28-8.8,1.46-.38,1.89,7.3,3.66-.95.39,1.5-5.12,1.32Z"/>
      <path class="cls-1" d="M54.87,35.52l-2.3-8.87,5.4-1.4.39,1.5-3.93,1.02.51,1.97,3.66-.95.39,1.49-3.66.95.62,2.41,4.07-1.05.39,1.5-5.53,1.43Z"/>
      <path class="cls-1" d="M61.65,33.76l-2.3-8.87,5.4-1.4.39,1.5-3.93,1.02.51,1.97,3.66-.95.39,1.49-3.66.95.62,2.41,4.07-1.05.39,1.5-5.53,1.43Z"/>
      <path class="cls-1" d="M70.29,31.53l-4.9-8.2,1.59-.41,3.54,6.09.08-7.03,1.56-.4-.31,9.55-1.57.41Z"/>
      <path class="cls-1" d="M75.21,30.25l-2.3-8.87,5.4-1.4.39,1.5-3.93,1.02.51,1.97,3.66-.95.39,1.49-3.66.95.62,2.41,4.07-1.05.39,1.5-5.53,1.43Z"/>
      <path class="cls-1" d="M88.62,23.3l1.56.18c.04,1.05-.15,1.87-.54,2.46-.4.59-.97.98-1.73,1.18-.95.25-1.81.08-2.59-.5-.9-.67-1.53-1.72-1.9-3.15-.39-1.51-.36-2.79.1-3.82.4-.9,1.1-1.47,2.1-1.73.82-.21,1.57-.11,2.26.31.49.29.93.81,1.32,1.54l-1.34.8c-.22-.46-.5-.78-.84-.96-.34-.18-.7-.23-1.08-.13-.54.14-.92.49-1.13,1.04-.22.56-.19,1.37.09,2.45.29,1.12.66,1.87,1.11,2.26.45.39.94.51,1.47.37.39-.1.68-.34.89-.71s.29-.9.24-1.59Z"/>
      <path class="cls-1" d="M92.15,25.87l-2.3-8.87,5.4-1.4.39,1.5-3.93,1.02.51,1.97,3.66-.95.39,1.49-3.66.95.62,2.41,4.07-1.05.39,1.5-5.53,1.43Z"/>
      <path class="cls-1" d="M98.94,24.11l-2.3-8.87,1.43-.37,4.51,5.15-1.53-5.92,1.37-.35,2.3,8.87-1.48.38-4.43-5.03,1.5,5.79-1.37.35Z"/>
      <path class="cls-1" d="M107.89,21.8l-1.91-7.37-2.16.56-.39-1.5,5.78-1.5.39,1.5-2.15.56,1.91,7.37-1.46.38Z"/>
      <path class="cls-1" d="M112.47,20.61l-2.3-8.87,5.4-1.4.39,1.5-3.93,1.02.51,1.97,3.66-.95.39,1.49-3.66.95.62,2.41,4.07-1.05.39,1.5-5.53,1.43Z"/>
      <path class="cls-1" d="M119.25,18.86l-2.3-8.87,3.09-.8c.79-.2,1.38-.27,1.76-.2.38.07.73.28,1.05.61s.55.78.69,1.33c.18.69.16,1.3-.07,1.81-.22.51-.63.9-1.21,1.17.37.14.7.32.97.54.28.22.68.62,1.21,1.23l1.33,1.5-1.75.45-1.56-1.66c-.56-.6-.94-.97-1.12-1.11s-.36-.22-.53-.25c-.17-.03-.43,0-.76.09l-.3.08.96,3.7-1.46.38ZM119.39,13.36l1.09-.28c.67-.17,1.08-.31,1.25-.42s.28-.26.35-.47c.07-.21.06-.46-.01-.75-.07-.28-.19-.49-.35-.64-.16-.14-.34-.22-.55-.24-.15,0-.55.07-1.21.24l-1.15.3.58,2.25Z"/>
      <path class="cls-1" d="M127.11,7.36l2.91-.75c.8-.21,1.37-.28,1.73-.22s.7.25,1.02.56.54.7.66,1.16c.11.43.12.84.01,1.23-.1.39-.28.71-.54.96.47.04.88.22,1.22.52s.58.73.72,1.26c.17.65.15,1.23-.04,1.76s-.49.9-.89,1.11c-.28.15-.95.36-2.02.64l-2.47.64-2.3-8.87ZM128.95,8.46l.53,2.05.97-.25c.58-.15.94-.25,1.07-.31.24-.11.41-.26.5-.47.1-.21.11-.46.03-.75-.07-.26-.18-.46-.34-.59-.16-.13-.32-.2-.5-.2-.17,0-.65.1-1.42.3l-.85.22ZM129.87,11.98l.61,2.37,1.36-.35c.6-.15.97-.29,1.13-.39.15-.11.26-.27.33-.48.07-.21.07-.46,0-.74-.08-.29-.2-.51-.37-.67-.17-.15-.37-.24-.59-.26s-.65.06-1.28.22l-1.19.31Z"/>
      <path class="cls-1" d="M143.3,12.63l-1.59.41-1.16-1.84-2.91.75-.08,2.16-1.56.4.54-9.61,1.56-.4,5.21,8.12ZM139.69,9.82l-1.86-3.03-.13,3.55,1.99-.52Z"/>
      <path class="cls-1" d="M147.89,7.97l1.56.18c.04,1.05-.15,1.87-.54,2.46-.4.59-.97.98-1.73,1.18-.95.25-1.81.08-2.59-.5-.9-.67-1.53-1.72-1.9-3.15-.39-1.51-.36-2.79.1-3.82.4-.9,1.1-1.47,2.1-1.73.82-.21,1.57-.11,2.26.31.49.29.93.81,1.32,1.54l-1.34.8c-.22-.46-.5-.78-.84-.96-.34-.18-.7-.23-1.08-.13-.54.14-.92.49-1.13,1.04-.22.56-.19,1.37.09,2.45.29,1.12.66,1.87,1.11,2.26s.94.51,1.47.37c.39-.1.68-.34.89-.71.2-.37.29-.9.24-1.59Z"/>
      <path class="cls-1" d="M151.42,10.53l-2.3-8.87,1.46-.38,1.02,3.95,1.95-4.72,1.98-.51-1.85,4.17,4.29,4.67-1.9.49-3.09-3.65-.81,1.8.69,2.68-1.46.38Z"/>
    </g>
    <g>
      <path class="cls-1" d="M115.67,241.31h-9.09v-1.51h7.54v-3.78h1.55v5.29Z"/>
      <path class="cls-1" d="M115.67,234.94h-9.16v-5.58h1.55v4.06h2.03v-3.78h1.54v3.78h2.49v-4.2h1.55v5.71Z"/>
      <path class="cls-1" d="M115.67,227.92h-9.16v-1.48l6.12-3.08h-6.12v-1.41h9.16v1.53l-5.98,3.03h5.98v1.41Z"/>
      <path class="cls-1" d="M112.31,216.86h-1.55v-3.27h3.65c.39.33.72.8,1,1.4.28.6.42,1.21.42,1.82,0,.74-.18,1.4-.55,1.96-.36.57-.91,1.02-1.64,1.35-.73.33-1.58.5-2.57.5s-1.87-.17-2.59-.5c-.72-.34-1.25-.77-1.61-1.31-.35-.54-.53-1.18-.53-1.92,0-.9.23-1.61.68-2.15.46-.54,1.13-.89,2.01-1.04l.34,1.5c-.47.11-.83.32-1.08.62s-.38.66-.38,1.08c0,.65.25,1.17.75,1.57.5.4,1.27.6,2.3.6,1.1,0,1.94-.22,2.52-.65.5-.37.74-.87.74-1.51,0-.3-.07-.6-.21-.92-.14-.32-.33-.6-.57-.85h-1.16v1.74Z"/>
      <path class="cls-1" d="M115.67,210.5h-7.61v2.23h-1.55v-5.97h1.55v2.23h7.61v1.51Z"/>
      <path class="cls-1" d="M115.67,205.77h-9.16v-1.51h3.61v-2.98h-3.61v-1.51h9.16v1.51h-4.01v2.98h4.01v1.51Z"/>
    </g>
    <g>
      <line class="cls-4" x1="87.29" y1="180.7" x2="276.24" y2="180.7"/>
      <path class="cls-2" d="M81.34,180.7c2.8,1.04,6.27,2.81,8.42,4.68l-1.69-4.68,1.69-4.68c-2.15,1.88-5.62,3.65-8.42,4.68Z"/>
      <path class="cls-2" d="M282.19,180.7c-2.8,1.04-6.27,2.81-8.42,4.68l1.69-4.68-1.69-4.68c2.15,1.88,5.62,3.65,8.42,4.68Z"/>
    </g>
    <g>
      <line class="cls-4" x1="119.41" y1="35.88" x2="119.41" y2="385.91"/>
      <path class="cls-2" d="M119.41,29.93c-1.04,2.8-2.81,6.27-4.68,8.42l4.68-1.69,4.68,1.69c-1.88-2.15-3.65-5.62-4.68-8.42Z"/>
      <path class="cls-2" d="M119.41,391.85c-1.04-2.8-2.81-6.27-4.68-8.42l4.68,1.69,4.68-1.69c-1.88,2.15-3.65,5.62-4.68,8.42Z"/>
    </g>
    <g>
      <polyline class="cls-4" points="10.74 104.1 60.05 38.67 172.32 9.39"/>
      <path class="cls-2" d="M7.16,108.85c2.51-1.61,6.01-3.31,8.81-3.9l-4.76-1.47-2.72-4.17c.2,2.85-.47,6.68-1.33,9.54Z"/>
      <path class="cls-2" d="M178.07,7.89c-2.44,1.71-5.36,4.3-6.96,6.66l.46-4.96-2.82-4.1c2.55,1.27,6.36,2.11,9.33,2.41Z"/>
    </g>
    <line class="cls-5" x1="181.73" y1="5" x2="181.73" y2="73.18"/>
    <line class="cls-5" x1=".49" y1="105.93" x2=".49" y2="139.36"/>
  </svg>